<svg width="48" height="48" viewBox="0 0 48 48" fill="none" xmlns="http://www.w3.org/2000/svg">
<path d="M10 15C10 11.2503 10 9.3754 10.9549 8.06107C11.2633 7.6366 11.6366 7.26331 12.0611 6.95492C13.3754 6 15.2503 6 19 6H29C32.7497 6 34.6246 6 35.9389 6.95492C36.3634 7.26331 36.7367 7.6366 37.0451 8.06107C38 9.3754 38 11.2503 38 15V37.299C38 41.142 38 43.0635 37.1399 43.5901C36.8771 43.751 36.5774 43.8418 36.2695 43.8537C35.2617 43.8926 34.1959 42.2938 32.0642 39.0962L25.4977 29.2465C24.9006 28.3509 24.602 27.903 24.1953 27.822C24.0664 27.7964 23.9336 27.7964 23.8047 27.822C23.398 27.903 23.0994 28.3509 22.5023 29.2465L15.9358 39.0962C13.8041 42.2938 12.7383 43.8926 11.7305 43.8537C11.4226 43.8418 11.1229 43.751 10.8601 43.5901C10 43.0635 10 41.142 10 37.299V15Z" stroke="black" stroke-width="3" stroke-linejoin="round"/>
</svg>
