<svg width="30" height="31" viewBox="0 0 30 31" fill="none" xmlns="http://www.w3.org/2000/svg">
<path d="M6.25 12.7611C6.25 9.24995 6.25 7.49437 7.09265 6.23326C7.45744 5.68731 7.9262 5.21855 8.47215 4.85376C9.73327 4.01111 11.4888 4.01111 15 4.01111V4.01111C18.5112 4.01111 20.2667 4.01111 21.5279 4.85376C22.0738 5.21855 22.5426 5.68731 22.9073 6.23326C23.75 7.49437 23.75 9.24995 23.75 12.7611V19.9453C23.75 23.8502 23.75 25.8027 22.8836 26.3283C22.6192 26.4887 22.3178 26.5783 22.0086 26.5884C20.9958 26.6214 19.9293 24.986 17.7961 21.7152L16.5077 19.7396C15.9082 18.8204 15.6085 18.3608 15.1973 18.278C15.0671 18.2518 14.9329 18.2518 14.8027 18.278C14.3915 18.3608 14.0918 18.8204 13.4923 19.7396L12.2039 21.7152C10.0707 24.986 9.00415 26.6214 7.99136 26.5884C7.68219 26.5783 7.38083 26.4887 7.11635 26.3283C6.25 25.8027 6.25 23.8502 6.25 19.9453V12.7611Z" stroke="#F7971D" stroke-width="1.4" stroke-linejoin="round"/>
</svg>
