<svg width="30" height="30" viewBox="0 0 30 30" fill="none" xmlns="http://www.w3.org/2000/svg">
<path d="M6.25 12.5C6.25 8.98884 6.25 7.23327 7.09265 5.97215C7.45744 5.4262 7.9262 4.95744 8.47215 4.59265C9.73327 3.75 11.4888 3.75 15 3.75C18.5112 3.75 20.2667 3.75 21.5279 4.59265C22.0738 4.95744 22.5426 5.4262 22.9073 5.97215C23.75 7.23327 23.75 8.98884 23.75 12.5V19.299C23.75 23.142 23.75 25.0635 22.8899 25.5901C22.6271 25.751 22.3274 25.8418 22.0195 25.8537C21.0117 25.8926 19.9459 24.2938 17.8142 21.0962L16.4977 19.1215C15.9006 18.2259 15.602 17.778 15.1953 17.697C15.0664 17.6714 14.9336 17.6714 14.8047 17.697C14.398 17.778 14.0994 18.2259 13.5023 19.1215L12.1858 21.0962C10.0541 24.2938 8.98825 25.8926 7.98046 25.8537C7.67258 25.8418 7.37292 25.751 7.11014 25.5901C6.25 25.0635 6.25 23.142 6.25 19.299V12.5Z" fill="#F7971D"/>
</svg>
