<svg width="24" height="25" viewBox="0 0 24 25" fill="none" xmlns="http://www.w3.org/2000/svg">
<path d="M18 15.625C18 15.625 21 15.1042 21 17.5157C21.5 21.875 18 21.3542 18 21.3542" stroke="black" stroke-width="1.4" stroke-linecap="round" stroke-linejoin="round"/>
<path d="M15.7115 4.3172C15.7115 4.3172 17.8568 4.15973 18.1471 6.69157C18.4374 9.2234 16.3045 9.48877 16.3045 9.48877" stroke="black" stroke-width="1.4" stroke-linecap="round" stroke-linejoin="round"/>
<path d="M3.24795 18.2591C3.27927 17.8023 3.29493 17.5739 3.32042 17.4248C3.57471 15.9368 4.67891 14.9766 6.18779 14.9315C6.33904 14.9269 6.61309 14.9464 7.16117 14.9853C7.86704 15.0354 8.6065 15.0695 9.31224 15.0695C10.1251 15.0695 11.0176 15.0243 11.8655 14.9614C12.396 14.9221 12.6612 14.9025 12.8236 14.9081C14.2991 14.9587 15.4146 15.9256 15.6741 17.3789C15.7027 17.5389 15.7185 17.7691 15.75 18.2296V18.2296C15.7779 18.6355 15.7918 18.8384 15.7843 19.0073C15.7192 20.482 14.591 21.6902 13.1242 21.8561C12.9563 21.875 12.7528 21.875 12.346 21.875H9.31224H6.62445C6.24486 21.875 6.05507 21.875 5.89825 21.8585C4.41318 21.702 3.26935 20.477 3.21476 18.9847C3.209 18.8271 3.22198 18.6378 3.24795 18.2591V18.2591Z" stroke="black" stroke-width="1.4"/>
<path d="M6 7.66668C6 5.73369 7.567 4.16669 9.5 4.16669V4.16669C11.433 4.16669 13 5.73369 13 7.66669V8.45836C13 10.1152 11.6569 11.4584 10 11.4584V11.4584H9V11.4584C7.34315 11.4584 6 10.1152 6 8.45835V7.66668Z" stroke="black" stroke-width="1.4"/>
</svg>
