<svg width="24" height="25" viewBox="0 0 24 25" fill="none" xmlns="http://www.w3.org/2000/svg">
<path d="M18 15.6249C18 15.6249 21 15.1041 21 17.5155C21.5 21.8749 18 21.3541 18 21.3541" stroke="white" stroke-width="1.4" stroke-linecap="round" stroke-linejoin="round"/>
<path d="M15.7116 4.31714C15.7116 4.31714 17.8569 4.15967 18.1472 6.69151C18.4375 9.22334 16.3046 9.48871 16.3046 9.48871" stroke="white" stroke-width="1.4" stroke-linecap="round" stroke-linejoin="round"/>
<path d="M3.24795 18.259C3.27927 17.8022 3.29493 17.5738 3.32042 17.4246C3.57471 15.9367 4.67891 14.9765 6.18779 14.9313C6.33904 14.9268 6.61309 14.9463 7.16117 14.9852C7.86704 15.0353 8.6065 15.0694 9.31224 15.0694C10.1251 15.0694 11.0176 15.0242 11.8655 14.9613C12.396 14.922 12.6612 14.9024 12.8236 14.9079C14.2991 14.9585 15.4146 15.9254 15.6741 17.3788C15.7027 17.5388 15.7185 17.769 15.75 18.2295V18.2295C15.7779 18.6354 15.7918 18.8383 15.7843 19.0072C15.7192 20.4819 14.591 21.6901 13.1242 21.8559C12.9563 21.8749 12.7528 21.8749 12.346 21.8749H9.31224H6.62445C6.24486 21.8749 6.05507 21.8749 5.89825 21.8584C4.41318 21.7018 3.26935 20.4769 3.21476 18.9846C3.209 18.827 3.22198 18.6377 3.24795 18.259V18.259Z" stroke="white" stroke-width="1.4"/>
<path d="M6 7.66662C6 5.73363 7.567 4.16663 9.5 4.16663V4.16663C11.433 4.16663 13 5.73363 13 7.66663V8.45829C13 10.1151 11.6569 11.4583 10 11.4583V11.4583H9V11.4583C7.34315 11.4583 6 10.1151 6 8.45829V7.66662Z" stroke="white" stroke-width="1.4"/>
</svg>
