<svg width="48" height="48" viewBox="0 0 48 48" fill="none" xmlns="http://www.w3.org/2000/svg">
<path d="M21.8327 8.88896C22.3875 7.98112 22.771 7.35577 23.1067 6.93097C23.441 6.50777 23.6381 6.40356 23.7767 6.37482C23.924 6.34428 24.076 6.34428 24.2233 6.37482C24.3619 6.40356 24.559 6.50777 24.8933 6.93097C25.229 7.35577 25.6125 7.98112 26.1673 8.88896L42.3902 35.4355C42.9874 36.4128 43.4006 37.0912 43.6427 37.6212C43.8858 38.1536 43.8837 38.3879 43.8416 38.5242C43.7957 38.6733 43.7185 38.8109 43.6153 38.9279C43.5208 39.0348 43.322 39.1588 42.741 39.2289C42.1625 39.2988 41.3682 39.3 40.2229 39.3H7.7771C6.63181 39.3 5.83749 39.2988 5.25898 39.2289C4.678 39.1588 4.47915 39.0348 4.38474 38.9278C4.28151 38.8109 4.20435 38.6733 4.15837 38.5242C4.11631 38.3879 4.11424 38.1536 4.35734 37.6212C4.59941 37.0912 5.01255 36.4128 5.60977 35.4355L21.8327 8.88896Z" stroke="black" stroke-width="1.4"/>
<path d="M24 20V28" stroke="black" stroke-width="1.4" stroke-linecap="round"/>
<path d="M25.4 32.6C25.4 33.3732 24.7732 34 24 34C23.2268 34 22.6 33.3732 22.6 32.6C22.6 31.8268 23.2268 31.2 24 31.2C24.7732 31.2 25.4 31.8268 25.4 32.6Z" fill="black"/>
</svg>
