<svg width="48" height="48" viewBox="0 0 48 48" fill="none" xmlns="http://www.w3.org/2000/svg">
<path d="M24 8V28" stroke="black" stroke-width="1.4" stroke-linecap="round"/>
<line x1="24" y1="30.4848" x2="31.1515" y2="23.3334" stroke="black" stroke-width="1.2" stroke-linecap="round"/>
<line x1="0.6" y1="-0.6" x2="10.7137" y2="-0.6" transform="matrix(-0.707107 -0.707107 -0.707107 0.707107 24 31.3334)" stroke="black" stroke-width="1.2" stroke-linecap="round"/>
<path d="M6.7 25C6.7 24.6134 6.3866 24.3 6 24.3C5.6134 24.3 5.3 24.6134 5.3 25H6.7ZM42.7 25C42.7 24.6134 42.3866 24.3 42 24.3C41.6134 24.3 41.3 24.6134 41.3 25H42.7ZM39.3629 38.9631L39.2887 38.2671L39.3629 38.9631ZM41.3 25C41.3 25.0086 41.3 25.0172 41.3 25.0258C41.3 25.0344 41.3 25.043 41.3 25.0516C41.3 25.0602 41.3 25.0688 41.3 25.0774C41.3 25.086 41.3 25.0946 41.3 25.1032C41.3 25.1118 41.3 25.1204 41.3 25.129C41.3 25.1376 41.3 25.1462 41.3 25.1548C41.3 25.1634 41.3 25.172 41.3 25.1806C41.3 25.1891 41.3 25.1977 41.3 25.2063C41.3 25.2149 41.3 25.2235 41.3 25.2321C41.3 25.2407 41.3 25.2492 41.3 25.2578C41.3 25.2664 41.3 25.275 41.3 25.2836C41.3 25.2921 41.3 25.3007 41.3 25.3093C41.3 25.3179 41.3 25.3264 41.3 25.335C41.3 25.3436 41.3 25.3521 41.3 25.3607C41.3 25.3693 41.3 25.3779 41.3 25.3864C41.3 25.395 41.3 25.4035 41.3 25.4121C41.3 25.4207 41.3 25.4292 41.3 25.4378C41.3 25.4464 41.3 25.4549 41.3 25.4635C41.3 25.472 41.3 25.4806 41.3 25.4891C41.3 25.4977 41.3 25.5063 41.3 25.5148C41.3 25.5234 41.3 25.5319 41.3 25.5405C41.3 25.549 41.3 25.5576 41.3 25.5661C41.3 25.5747 41.3 25.5832 41.3 25.5917C41.3 25.6003 41.3 25.6088 41.3 25.6174C41.3 25.6259 41.3 25.6344 41.3 25.643C41.3 25.6515 41.3 25.6601 41.3 25.6686C41.3 25.6771 41.3 25.6857 41.3 25.6942C41.3 25.7027 41.3 25.7113 41.3 25.7198C41.3 25.7283 41.3 25.7368 41.3 25.7454C41.3 25.7539 41.3 25.7624 41.3 25.7709C41.3 25.7795 41.3 25.788 41.3 25.7965C41.3 25.805 41.3 25.8135 41.3 25.822C41.3 25.8306 41.3 25.8391 41.3 25.8476C41.3 25.8561 41.3 25.8646 41.3 25.8731C41.3 25.8816 41.3 25.8901 41.3 25.8987C41.3 25.9072 41.3 25.9157 41.3 25.9242C41.3 25.9327 41.3 25.9412 41.3 25.9497C41.3 25.9582 41.3 25.9667 41.3 25.9752C41.3 25.9837 41.3 25.9922 41.3 26.0007C41.3 26.0091 41.3 26.0176 41.3 26.0261C41.3 26.0346 41.3 26.0431 41.3 26.0516C41.3 26.0601 41.3 26.0686 41.3 26.0771C41.3 26.0855 41.3 26.094 41.3 26.1025C41.3 26.111 41.3 26.1195 41.3 26.1279C41.3 26.1364 41.3 26.1449 41.3 26.1534C41.3 26.1618 41.3 26.1703 41.3 26.1788C41.3 26.1873 41.3 26.1957 41.3 26.2042C41.3 26.2127 41.3 26.2211 41.3 26.2296C41.3 26.2381 41.3 26.2465 41.3 26.255C41.3 26.2634 41.3 26.2719 41.3 26.2803C41.3 26.2888 41.3 26.2973 41.3 26.3057C41.3 26.3142 41.3 26.3226 41.3 26.3311C41.3 26.3395 41.3 26.348 41.3 26.3564C41.3 26.3649 41.3 26.3733 41.3 26.3818C41.3 26.3902 41.3 26.3986 41.3 26.4071C41.3 26.4155 41.3 26.424 41.3 26.4324C41.3 26.4408 41.3 26.4493 41.3 26.4577C41.3 26.4661 41.3 26.4746 41.3 26.483C41.3 26.4914 41.3 26.4998 41.3 26.5083C41.3 26.5167 41.3 26.5251 41.3 26.5335C41.3 26.542 41.3 26.5504 41.3 26.5588C41.3 26.5672 41.3 26.5756 41.3 26.584C41.3 26.5925 41.3 26.6009 41.3 26.6093C41.3 26.6177 41.3 26.6261 41.3 26.6345C41.3 26.6429 41.3 26.6513 41.3 26.6597C41.3 26.6681 41.3 26.6765 41.3 26.6849C41.3 26.6933 41.3 26.7017 41.3 26.7101C41.3 26.7185 41.3 26.7269 41.3 26.7353C41.3 26.7437 41.3 26.7521 41.3 26.7605C41.3 26.7689 41.3 26.7772 41.3 26.7856C41.3 26.794 41.3 26.8024 41.3 26.8108C41.3 26.8192 41.3 26.8275 41.3 26.8359C41.3 26.8443 41.3 26.8527 41.3 26.861C41.3 26.8694 41.3 26.8778 41.3 26.8862C41.3 26.8945 41.3 26.9029 41.3 26.9113C41.3 26.9196 41.3 26.928 41.3 26.9363C41.3 26.9447 41.3 26.9531 41.3 26.9614C41.3 26.9698 41.3 26.9781 41.3 26.9865C41.3 26.9948 41.3 27.0032 41.3 27.0115C41.3 27.0199 41.3 27.0282 41.3 27.0366C41.3 27.0449 41.3 27.0533 41.3 27.0616C41.3 27.07 41.3 27.0783 41.3 27.0866C41.3 27.095 41.3 27.1033 41.3 27.1116C41.3 27.12 41.3 27.1283 41.3 27.1366C41.3 27.145 41.3 27.1533 41.3 27.1616C41.3 27.1699 41.3 27.1783 41.3 27.1866C41.3 27.1949 41.3 27.2032 41.3 27.2116C41.3 27.2199 41.3 27.2282 41.3 27.2365C41.3 27.2448 41.3 27.2531 41.3 27.2614C41.3 27.2697 41.3 27.278 41.3 27.2864C41.3 27.2947 41.3 27.303 41.3 27.3113C41.3 27.3196 41.3 27.3279 41.3 27.3362C41.3 27.3445 41.3 27.3527 41.3 27.361C41.3 27.3693 41.3 27.3776 41.3 27.3859C41.3 27.3942 41.3 27.4025 41.3 27.4108C41.3 27.4191 41.3 27.4273 41.3 27.4356C41.3 27.4439 41.3 27.4522 41.3 27.4604C41.3 27.4687 41.3 27.477 41.3 27.4853C41.3 27.4935 41.3 27.5018 41.3 27.5101C41.3 27.5183 41.3 27.5266 41.3 27.5349C41.3 27.5431 41.3 27.5514 41.3 27.5596C41.3 27.5679 41.3 27.5762 41.3 27.5844C41.3 27.5927 41.3 27.6009 41.3 27.6092C41.3 27.6174 41.3 27.6257 41.3 27.6339C41.3 27.6422 41.3 27.6504 41.3 27.6586C41.3 27.6669 41.3 27.6751 41.3 27.6833C41.3 27.6916 41.3 27.6998 41.3 27.7081C41.3 27.7163 41.3 27.7245 41.3 27.7327C41.3 27.741 41.3 27.7492 41.3 27.7574C41.3 27.7656 41.3 27.7739 41.3 27.7821C41.3 27.7903 41.3 27.7985 41.3 27.8067C41.3 27.8149 41.3 27.8231 41.3 27.8314C41.3 27.8396 41.3 27.8478 41.3 27.856C41.3 27.8642 41.3 27.8724 41.3 27.8806C41.3 27.8888 41.3 27.897 41.3 27.9052C41.3 27.9134 41.3 27.9216 41.3 27.9298C41.3 27.9379 41.3 27.9461 41.3 27.9543C41.3 27.9625 41.3 27.9707 41.3 27.9789C41.3 27.987 41.3 27.9952 41.3 28.0034C41.3 28.0116 41.3 28.0198 41.3 28.0279C41.3 28.0361 41.3 28.0443 41.3 28.0524C41.3 28.0606 41.3 28.0688 41.3 28.0769C41.3 28.0851 41.3 28.0933 41.3 28.1014C41.3 28.1096 41.3 28.1177 41.3 28.1259C41.3 28.134 41.3 28.1422 41.3 28.1503C41.3 28.1585 41.3 28.1666 41.3 28.1748C41.3 28.1829 41.3 28.191 41.3 28.1992C41.3 28.2073 41.3 28.2155 41.3 28.2236C41.3 28.2317 41.3 28.2399 41.3 28.248C41.3 28.2561 41.3 28.2642 41.3 28.2724C41.3 28.2805 41.3 28.2886 41.3 28.2967C41.3 28.3049 41.3 28.313 41.3 28.3211C41.3 28.3292 41.3 28.3373 41.3 28.3454C41.3 28.3535 41.3 28.3616 41.3 28.3697C41.3 28.3778 41.3 28.3859 41.3 28.394C41.3 28.4021 41.3 28.4102 41.3 28.4183C41.3 28.4264 41.3 28.4345 41.3 28.4426C41.3 28.4507 41.3 28.4588 41.3 28.4669C41.3 28.475 41.3 28.483 41.3 28.4911C41.3 28.4992 41.3 28.5073 41.3 28.5153C41.3 28.5234 41.3 28.5315 41.3 28.5396C41.3 28.5476 41.3 28.5557 41.3 28.5638C41.3 28.5718 41.3 28.5799 41.3 28.5879C41.3 28.596 41.3 28.6041 41.3 28.6121C41.3 28.6202 41.3 28.6282 41.3 28.6363C41.3 28.6443 41.3 28.6524 41.3 28.6604C41.3 28.6684 41.3 28.6765 41.3 28.6845C41.3 28.6926 41.3 28.7006 41.3 28.7086C41.3 28.7167 41.3 28.7247 41.3 28.7327C41.3 28.7408 41.3 28.7488 41.3 28.7568C41.3 28.7648 41.3 28.7728 41.3 28.7809C41.3 28.7889 41.3 28.7969 41.3 28.8049C41.3 28.8129 41.3 28.8209 41.3 28.8289C41.3 28.8369 41.3 28.8449 41.3 28.8529C41.3 28.8609 41.3 28.8689 41.3 28.8769C41.3 28.8849 41.3 28.8929 41.3 28.9009C41.3 28.9089 41.3 28.9169 41.3 28.9249C41.3 28.9329 41.3 28.9409 41.3 28.9488C41.3 28.9568 41.3 28.9648 41.3 28.9728C41.3 28.9807 41.3 28.9887 41.3 28.9967C41.3 29.0047 41.3 29.0126 41.3 29.0206C41.3 29.0286 41.3 29.0365 41.3 29.0445C41.3 29.0524 41.3 29.0604 41.3 29.0683C41.3 29.0763 41.3 29.0842 41.3 29.0922C41.3 29.1001 41.3 29.1081 41.3 29.116C41.3 29.124 41.3 29.1319 41.3 29.1398C41.3 29.1478 41.3 29.1557 41.3 29.1636C41.3 29.1716 41.3 29.1795 41.3 29.1874C41.3 29.1954 41.3 29.2033 41.3 29.2112C41.3 29.2191 41.3 29.227 41.3 29.2349C41.3 29.2429 41.3 29.2508 41.3 29.2587C41.3 29.2666 41.3 29.2745 41.3 29.2824C41.3 29.2903 41.3 29.2982 41.3 29.3061C41.3 29.314 41.3 29.3219 41.3 29.3298C41.3 29.3377 41.3 29.3456 41.3 29.3534C41.3 29.3613 41.3 29.3692 41.3 29.3771C41.3 29.385 41.3 29.3929 41.3 29.4007C41.3 29.4086 41.3 29.4165 41.3 29.4243C41.3 29.4322 41.3 29.4401 41.3 29.4479C41.3 29.4558 41.3 29.4637 41.3 29.4715C41.3 29.4794 41.3 29.4872 41.3 29.4951C41.3 29.5029 41.3 29.5108 41.3 29.5186C41.3 29.5265 41.3 29.5343 41.3 29.5422C41.3 29.55 41.3 29.5578 41.3 29.5657C41.3 29.5735 41.3 29.5813 41.3 29.5892C41.3 29.597 41.3 29.6048 41.3 29.6126C41.3 29.6205 41.3 29.6283 41.3 29.6361C41.3 29.6439 41.3 29.6517 41.3 29.6595C41.3 29.6673 41.3 29.6752 41.3 29.683C41.3 29.6908 41.3 29.6986 41.3 29.7064C41.3 29.7142 41.3 29.722 41.3 29.7298C41.3 29.7375 41.3 29.7453 41.3 29.7531C41.3 29.7609 41.3 29.7687 41.3 29.7765C41.3 29.7843 41.3 29.792 41.3 29.7998C41.3 29.8076 41.3 29.8153 41.3 29.8231C41.3 29.8309 41.3 29.8387 41.3 29.8464C41.3 29.8542 41.3 29.8619 41.3 29.8697C41.3 29.8774 41.3 29.8852 41.3 29.893C41.3 29.9007 41.3 29.9085 41.3 29.9162C41.3 29.9239 41.3 29.9317 41.3 29.9394C41.3 29.9472 41.3 29.9549 41.3 29.9626C41.3 29.9704 41.3 29.9781 41.3 29.9858C41.3 29.9935 41.3 30.0013 41.3 30.009C41.3 30.0167 41.3 30.0244 41.3 30.0321C41.3 30.0398 41.3 30.0475 41.3 30.0553C41.3 30.063 41.3 30.0707 41.3 30.0784C41.3 30.0861 41.3 30.0938 41.3 30.1015C41.3 30.1092 41.3 30.1168 41.3 30.1245C41.3 30.1322 41.3 30.1399 41.3 30.1476C41.3 30.1553 41.3 30.163 41.3 30.1706C41.3 30.1783 41.3 30.186 41.3 30.1936C41.3 30.2013 41.3 30.209 41.3 30.2166C41.3 30.2243 41.3 30.232 41.3 30.2396C41.3 30.2473 41.3 30.2549 41.3 30.2626C41.3 30.2702 41.3 30.2779 41.3 30.2855C41.3 30.2932 41.3 30.3008 41.3 30.3084C41.3 30.3161 41.3 30.3237 41.3 30.3314C41.3 30.339 41.3 30.3466 41.3 30.3542C41.3 30.3619 41.3 30.3695 41.3 30.3771C41.3 30.3847 41.3 30.3923 41.3 30.3999C41.3 30.4076 41.3 30.4152 41.3 30.4228C41.3 30.4304 41.3 30.438 41.3 30.4456C41.3 30.4532 41.3 30.4608 41.3 30.4684C41.3 30.476 41.3 30.4835 41.3 30.4911C41.3 30.4987 41.3 30.5063 41.3 30.5139C41.3 30.5215 41.3 30.529 41.3 30.5366C41.3 30.5442 41.3 30.5517 41.3 30.5593C41.3 30.5669 41.3 30.5744 41.3 30.582C41.3 30.5896 41.3 30.5971 41.3 30.6047C41.3 30.6122 41.3 30.6198 41.3 30.6273C41.3 30.6349 41.3 30.6424 41.3 30.6499C41.3 30.6575 41.3 30.665 41.3 30.6725C41.3 30.6801 41.3 30.6876 41.3 30.6951C41.3 30.7027 41.3 30.7102 41.3 30.7177C41.3 30.7252 41.3 30.7327 41.3 30.7402C41.3 30.7478 41.3 30.7553 41.3 30.7628C41.3 30.7703 41.3 30.7778 41.3 30.7853C41.3 30.7928 41.3 30.8003 41.3 30.8078C41.3 30.8152 41.3 30.8227 41.3 30.8302C41.3 30.8377 41.3 30.8452 41.3 30.8527C41.3 30.8601 41.3 30.8676 41.3 30.8751C41.3 30.8826 41.3 30.89 41.3 30.8975C41.3 30.905 41.3 30.9124 41.3 30.9199C41.3 30.9273 41.3 30.9348 41.3 30.9422C41.3 30.9497 41.3 30.9571 41.3 30.9646C41.3 30.972 41.3 30.9795 41.3 30.9869C41.3 30.9943 41.3 31.0018 41.3 31.0092C41.3 31.0166 41.3 31.0241 41.3 31.0315C41.3 31.0389 41.3 31.0463 41.3 31.0537C41.3 31.0611 41.3 31.0686 41.3 31.076C41.3 31.0834 41.3 31.0908 41.3 31.0982C41.3 31.1056 41.3 31.113 41.3 31.1204C41.3 31.1278 41.3 31.1352 41.3 31.1425C41.3 31.1499 41.3 31.1573 41.3 31.1647C41.3 31.1721 41.3 31.1795 41.3 31.1868C41.3 31.1942 41.3 31.2016 41.3 31.2089C41.3 31.2163 41.3 31.2237 41.3 31.231C41.3 31.2384 41.3 31.2457 41.3 31.2531C41.3 31.2604 41.3 31.2678 41.3 31.2751C41.3 31.2825 41.3 31.2898 41.3 31.2972C41.3 31.3045 41.3 31.3118 41.3 31.3192C41.3 31.3265 41.3 31.3338 41.3 31.3411C41.3 31.3485 41.3 31.3558 41.3 31.3631C41.3 31.3704 41.3 31.3777 41.3 31.385C41.3 31.3923 41.3 31.3996 41.3 31.4069C41.3 31.4142 41.3 31.4215 41.3 31.4288C41.3 31.4361 41.3 31.4434 41.3 31.4507C41.3 31.458 41.3 31.4653 41.3 31.4725C41.3 31.4798 41.3 31.4871 41.3 31.4944C41.3 31.5016 41.3 31.5089 41.3 31.5162C41.3 31.5234 41.3 31.5307 41.3 31.538C41.3 31.5452 41.3 31.5525 41.3 31.5597C41.3 31.567 41.3 31.5742 41.3 31.5815C41.3 31.5887 41.3 31.5959 41.3 31.6032C41.3 31.6104 41.3 31.6176 41.3 31.6249C41.3 31.6321 41.3 31.6393 41.3 31.6465C41.3 31.6537 41.3 31.661 41.3 31.6682C41.3 31.6754 41.3 31.6826 41.3 31.6898C41.3 31.697 41.3 31.7042 41.3 31.7114C41.3 31.7186 41.3 31.7258 41.3 31.733C41.3 31.7402 41.3 31.7474 41.3 31.7545C41.3 31.7617 41.3 31.7689 41.3 31.7761C41.3 31.7832 41.3 31.7904 41.3 31.7976C41.3 31.8047 41.3 31.8119 41.3 31.8191C41.3 31.8262 41.3 31.8334 41.3 31.8405C41.3 31.8477 41.3 31.8548 41.3 31.862C41.3 31.8691 41.3 31.8763 41.3 31.8834C41.3 31.8905 41.3 31.8977 41.3 31.9048C41.3 31.9119 41.3 31.919 41.3 31.9262C41.3 31.9333 41.3 31.9404 41.3 31.9475C41.3 31.9546 41.3 31.9617 41.3 31.9688C41.3 31.9759 41.3 31.983 41.3 31.9901C41.3 31.9972 41.3 32.0043 41.3 32.0114C41.3 32.0185 41.3 32.0256 41.3 32.0327C41.3 32.0398 41.3 32.0468 41.3 32.0539C41.3 32.061 41.3 32.068 41.3 32.0751C41.3 32.0822 41.3 32.0892 41.3 32.0963C41.3 32.1034 41.3 32.1104 41.3 32.1175C41.3 32.1245 41.3 32.1316 41.3 32.1386C41.3 32.1456 41.3 32.1527 41.3 32.1597C41.3 32.1667 41.3 32.1738 41.3 32.1808C41.3 32.1878 41.3 32.1948 41.3 32.2019C41.3 32.2089 41.3 32.2159 41.3 32.2229C41.3 32.2299 41.3 32.2369 41.3 32.2439C41.3 32.2509 41.3 32.2579 41.3 32.2649C41.3 32.2719 41.3 32.2789 41.3 32.2859C41.3 32.2929 41.3 32.2999 41.3 32.3068C41.3 32.3138 41.3 32.3208 41.3 32.3278C41.3 32.3347 41.3 32.3417 41.3 32.3487C41.3 32.3556 41.3 32.3626 41.3 32.3695C41.3 32.3765 41.3 32.3834 41.3 32.3904C41.3 32.3973 41.3 32.4043 41.3 32.4112C41.3 32.4181 41.3 32.4251 41.3 32.432C41.3 32.4389 41.3 32.4459 41.3 32.4528C41.3 32.4597 41.3 32.4666 41.3 32.4735C41.3 32.4804 41.3 32.4873 41.3 32.4942C41.3 32.5012 41.3 32.5081 41.3 32.5149C41.3 32.5218 41.3 32.5287 41.3 32.5356C41.3 32.5425 41.3 32.5494 41.3 32.5563C41.3 32.5632 41.3 32.57 41.3 32.5769C41.3 32.5838 41.3 32.5906 41.3 32.5975C41.3 32.6044 41.3 32.6112 41.3 32.6181C41.3 32.6249 41.3 32.6318 41.3 32.6386C41.3 32.6455 41.3 32.6523 41.3 32.6592C41.3 32.666 41.3 32.6728 41.3 32.6797C41.3 32.6865 41.3 32.6933 41.3 32.7001C41.3 32.707 41.3 32.7138 41.3 32.7206C41.3 32.7274 41.3 32.7342 41.3 32.741C41.3 32.7478 41.3 32.7546 41.3 32.7614C41.3 32.7682 41.3 32.775 41.3 32.7818C41.3 32.7886 41.3 32.7954 41.3 32.8021C41.3 32.8089 41.3 32.8157 41.3 32.8225C41.3 32.8292 41.3 32.836 41.3 32.8428C41.3 32.8495 41.3 32.8563 41.3 32.863C41.3 32.8698 41.3 32.8765 41.3 32.8833C41.3 32.89 41.3 32.8968 41.3 32.9035C41.3 32.9102 41.3 32.917 41.3 32.9237C41.3 32.9304 41.3 32.9372 41.3 32.9439C41.3 32.9506 41.3 32.9573 41.3 32.964C41.3 32.9707 41.3 32.9774 41.3 32.9841C41.3 32.9908 41.3 32.9975 41.3 33.0042C41.3 33.0109 41.3 33.0176 41.3 33.0243C41.3 33.031 41.3 33.0377 41.3 33.0443C41.3 33.051 41.3 33.0577 41.3 33.0644C41.3 33.071 41.3 33.0777 41.3 33.0843C41.3 33.091 41.3 33.0977 41.3 33.1043C41.3 33.111 41.3 33.1176 41.3 33.1242C41.3 33.1309 41.3 33.1375 41.3 33.1442C41.3 33.1508 41.3 33.1574 41.3 33.164C41.3 33.1707 41.3 33.1773 41.3 33.1839C41.3 33.1905 41.3 33.1971 41.3 33.2037C41.3 33.2103 41.3 33.2169 41.3 33.2235C41.3 33.2301 41.3 33.2367 41.3 33.2433C41.3 33.2499 41.3 33.2565 41.3 33.2631C41.3 33.2696 41.3 33.2762 41.3 33.2828C41.3 33.2893 41.3 33.2959 41.3 33.3025C41.3 33.309 41.3 33.3156 41.3 33.3221C41.3 33.3287 41.3 33.3352 41.3 33.3418C41.3 33.3483 41.3 33.3549 41.3 33.3614C41.3 33.3679 41.3 33.3745 41.3 33.381C41.3 33.3875 41.3 33.394 41.3 33.4005C41.3 33.4071 41.3 33.4136 41.3 33.4201C41.3 33.4266 41.3 33.4331 41.3 33.4396C41.3 33.4461 41.3 33.4526 41.3 33.4591C41.3 33.4656 41.3 33.472 41.3 33.4785C41.3 33.485 41.3 33.4915 41.3 33.4979C41.3 33.5044 41.3 33.5109 41.3 33.5173C41.3 33.5238 41.3 33.5303 41.3 33.5367C41.3 33.5432 41.3 33.5496 41.3 33.5561C41.3 33.5625 41.3 33.5689 41.3 33.5754C41.3 33.5818 41.3 33.5882 41.3 33.5947C41.3 33.6011 41.3 33.6075 41.3 33.6139C41.3 33.6203 41.3 33.6268 41.3 33.6332C41.3 33.6396 41.3 33.646 41.3 33.6524C41.3 33.6588 41.3 33.6652 41.3 33.6715C41.3 33.6779 41.3 33.6843 41.3 33.6907C41.3 33.6971 41.3 33.7034 41.3 33.7098C41.3 33.7162 41.3 33.7225 41.3 33.7289C41.3 33.7353 41.3 33.7416 41.3 33.748C41.3 33.7543 41.3 33.7607 41.3 33.767C41.3 33.7733 41.3 33.7797 41.3 33.786C41.3 33.7923 41.3 33.7987 41.3 33.805C41.3 33.8113 41.3 33.8176 41.3 33.824C41.3 33.8303 41.3 33.8366 41.3 33.8429C41.3 33.8492 41.3 33.8555 41.3 33.8618C41.3 33.8681 41.3 33.8744 41.3 33.8806C41.3 33.8869 41.3 33.8932 41.3 33.8995C41.3 33.9058 41.3 33.912 41.3 33.9183C41.3 33.9246 41.3 33.9308 41.3 33.9371C41.3 33.9433 41.3 33.9496 41.3 33.9558C41.3 33.9621 41.3 33.9683 41.3 33.9746C41.3 33.9808 41.3 33.987 41.3 33.9932C41.3 33.9995 41.3 34.0057 41.3 34.0119C41.3 34.0181 41.3 34.0243 41.3 34.0306C41.3 34.0368 41.3 34.043 41.3 34.0492C41.3 34.0554 41.3 34.0616 41.3 34.0677C41.3 34.0739 41.3 34.0801 41.3 34.0863C41.3 34.0925 41.3 34.0986 41.3 34.1048C41.3 34.111 41.3 34.1172 41.3 34.1233C41.3 34.1295 41.3 34.1356 41.3 34.1418C41.3 34.1479 41.3 34.1541 41.3 34.1602C41.3 34.1664 41.3 34.1725 41.3 34.1786C41.3 34.1847 41.3 34.1909 41.3 34.197C41.3 34.2031 41.3 34.2092 41.3 34.2153C41.3 34.2215 41.3 34.2276 41.3 34.2337C41.3 34.2398 41.3 34.2459 41.3 34.2519C41.3 34.258 41.3 34.2641 41.3 34.2702C41.3 34.2763 41.3 34.2824 41.3 34.2884C41.3 34.2945 41.3 34.3006 41.3 34.3066C41.3 34.3127 41.3 34.3188 41.3 34.3248C41.3 34.3309 41.3 34.3369 41.3 34.3429C41.3 34.349 41.3 34.355 41.3 34.3611C41.3 34.3671 41.3 34.3731 41.3 34.3791C41.3 34.3852 41.3 34.3912 41.3 34.3972C41.3 34.4032 41.3 34.4092 41.3 34.4152C41.3 34.4212 41.3 34.4272 41.3 34.4332C41.3 34.4392 41.3 34.4452 41.3 34.4512C41.3 34.4571 41.3 34.4631 41.3 34.4691C41.3 34.4751 41.3 34.481 41.3 34.487C41.3 34.4929 41.3 34.4989 41.3 34.5049C41.3 34.5108 41.3 34.5168 41.3 34.5227C41.3 34.5286 41.3 34.5346 41.3 34.5405C41.3 34.5464 41.3 34.5524 41.3 34.5583C41.3 34.5642 41.3 34.5701 41.3 34.576C41.3 34.5819 41.3 34.5878 41.3 34.5937C41.3 34.5996 41.3 34.6055 41.3 34.6114C41.3 34.6173 41.3 34.6232 41.3 34.6291C41.3 34.635 41.3 34.6408 41.3 34.6467C41.3 34.6526 41.3 34.6585 41.3 34.6643C41.3 34.6702 41.3 34.676 41.3 34.6819C41.3 34.6877 41.3 34.6936 41.3 34.6994C41.3 34.7052 41.3 34.7111 41.3 34.7169C41.3 34.7227 41.3 34.7286 41.3 34.7344C41.3 34.7402 41.3 34.746 41.3 34.7518C41.3 34.7576 41.3 34.7634 41.3 34.7692C41.3 34.775 41.3 34.7808 41.3 34.7866C41.3 34.7924 41.3 34.7982 41.3 34.804C41.3 34.8097 41.3 34.8155 41.3 34.8213C41.3 34.827 41.3 34.8328 41.3 34.8386C41.3 34.8443 41.3 34.8501 41.3 34.8558C41.3 34.8616 41.3 34.8673 41.3 34.873C41.3 34.8788 41.3 34.8845 41.3 34.8902C41.3 34.896 41.3 34.9017 41.3 34.9074C41.3 34.9131 41.3 34.9188 41.3 34.9245C41.3 34.9302 41.3 34.9359 41.3 34.9416C41.3 34.9473 41.3 34.953 41.3 34.9587C41.3 34.9644 41.3 34.97 41.3 34.9757C41.3 34.9814 41.3 34.987 41.3 34.9927C41.3 34.9984 41.3 35.004 41.3 35.0097C41.3 35.0153 41.3 35.021 41.3 35.0266C41.3 35.0323 41.3 35.0379 41.3 35.0435C41.3 35.0492 41.3 35.0548 41.3 35.0604C41.3 35.066 41.3 35.0716 41.3 35.0772C41.3 35.0828 41.3 35.0884 41.3 35.094C41.3 35.0996 41.3 35.1052 41.3 35.1108C41.3 35.1164 41.3 35.122 41.3 35.1276C41.3 35.1331 41.3 35.1387 41.3 35.1443C41.3 35.1498 41.3 35.1554 41.3 35.161C41.3 35.1665 41.3 35.1721 41.3 35.1776C41.3 35.1832 41.3 35.1887 41.3 35.1942C41.3 35.1998 41.3 35.2053 41.3 35.2108C41.3 35.2163 41.3 35.2218 41.3 35.2274C41.3 35.2329 41.3 35.2384 41.3 35.2439C41.3 35.2494 41.3 35.2549 41.3 35.2604C41.3 35.2659 41.3 35.2713 41.3 35.2768C41.3 35.2823 41.3 35.2878 41.3 35.2932C41.3 35.2987 41.3 35.3042 41.3 35.3096C41.3 35.3151 41.3 35.3205 41.3 35.326C41.3 35.3314 41.3 35.3369 41.3 35.3423C41.3 35.3477 41.3 35.3532 41.3 35.3586C41.3 35.364 41.3 35.3694 41.3 35.3748C41.3 35.3803 41.3 35.3857 41.3 35.3911C41.3 35.3965 41.3 35.4019 41.3 35.4073C41.3 35.4126 41.3 35.418 41.3 35.4234C41.3 35.4288 41.3 35.4342 41.3 35.4395C41.3 35.4449 41.3 35.4503 41.3 35.4556C41.3 35.461 41.3 35.4663 41.3 35.4717C41.3 35.477 41.3 35.4824 41.3 35.4877C41.3 35.493 41.3 35.4984 41.3 35.5037C41.3 35.509 41.3 35.5143 41.3 35.5197C41.3 35.525 41.3 35.5303 41.3 35.5356C41.3 35.5409 41.3 35.5462 41.3 35.5515C41.3 35.5568 41.3 35.562 41.3 35.5673C41.3 35.5726 41.3 35.5779 41.3 35.5831C41.3 35.5884 41.3 35.5937 41.3 35.5989C41.3 35.6042 41.3 35.6094 41.3 35.6147C41.3 35.6199 41.3 35.6252 41.3 35.6304C41.3 35.6356 41.3 35.6409 41.3 35.6461C41.3 35.6513 41.3 35.6565 41.3 35.6617C41.3 35.667 41.3 35.6722 41.3 35.6774C41.3 35.6826 41.3 35.6878 41.3 35.6929C41.3 35.6981 41.3 35.7033 41.3 35.7085C41.3 35.7137 41.3 35.7188 41.3 35.724C41.3 35.7292 41.3 35.7343 41.3 35.7395C41.3 35.7447 41.3 35.7498 41.3 35.7549C41.3 35.7601 41.3 35.7652 41.3 35.7704C41.3 35.7755 41.3 35.7806 41.3 35.7857C41.3 35.7909 41.3 35.796 41.3 35.8011C41.3 35.8062 41.3 35.8113 41.3 35.8164C41.3 35.8215 41.3 35.8266 41.3 35.8317C41.3 35.8368 41.3 35.8418 41.3 35.8469C41.3 35.852 41.3 35.8571 41.3 35.8621C41.3 35.8672 41.3 35.8722 41.3 35.8773C41.3 35.8823 41.3 35.8874 41.3 35.8924C41.3 35.8975 41.3 35.9025 41.3 35.9075C41.3 35.9126 41.3 35.9176 41.3 35.9226C41.3 35.9276 41.3 35.9326 41.3 35.9376C41.3 35.9426 41.3 35.9476 41.3 35.9526C41.3 35.9576 41.3 35.9626 41.3 35.9676C41.3 35.9726 41.3 35.9775 41.3 35.9825C41.3 35.9875 41.3 35.9924 41.3 35.9974C41.3 36.0024 41.3 36.0073 41.3 36.0123H42.7C42.7 36.0073 42.7 36.0024 42.7 35.9974C42.7 35.9924 42.7 35.9875 42.7 35.9825C42.7 35.9775 42.7 35.9726 42.7 35.9676C42.7 35.9626 42.7 35.9576 42.7 35.9526C42.7 35.9476 42.7 35.9426 42.7 35.9376C42.7 35.9326 42.7 35.9276 42.7 35.9226C42.7 35.9176 42.7 35.9126 42.7 35.9075C42.7 35.9025 42.7 35.8975 42.7 35.8924C42.7 35.8874 42.7 35.8823 42.7 35.8773C42.7 35.8722 42.7 35.8672 42.7 35.8621C42.7 35.8571 42.7 35.852 42.7 35.8469C42.7 35.8418 42.7 35.8368 42.7 35.8317C42.7 35.8266 42.7 35.8215 42.7 35.8164C42.7 35.8113 42.7 35.8062 42.7 35.8011C42.7 35.796 42.7 35.7909 42.7 35.7857C42.7 35.7806 42.7 35.7755 42.7 35.7704C42.7 35.7652 42.7 35.7601 42.7 35.7549C42.7 35.7498 42.7 35.7447 42.7 35.7395C42.7 35.7343 42.7 35.7292 42.7 35.724C42.7 35.7188 42.7 35.7137 42.7 35.7085C42.7 35.7033 42.7 35.6981 42.7 35.6929C42.7 35.6878 42.7 35.6826 42.7 35.6774C42.7 35.6722 42.7 35.667 42.7 35.6617C42.7 35.6565 42.7 35.6513 42.7 35.6461C42.7 35.6409 42.7 35.6356 42.7 35.6304C42.7 35.6252 42.7 35.6199 42.7 35.6147C42.7 35.6094 42.7 35.6042 42.7 35.5989C42.7 35.5937 42.7 35.5884 42.7 35.5831C42.7 35.5779 42.7 35.5726 42.7 35.5673C42.7 35.562 42.7 35.5568 42.7 35.5515C42.7 35.5462 42.7 35.5409 42.7 35.5356C42.7 35.5303 42.7 35.525 42.7 35.5197C42.7 35.5143 42.7 35.509 42.7 35.5037C42.7 35.4984 42.7 35.493 42.7 35.4877C42.7 35.4824 42.7 35.477 42.7 35.4717C42.7 35.4663 42.7 35.461 42.7 35.4556C42.7 35.4503 42.7 35.4449 42.7 35.4395C42.7 35.4342 42.7 35.4288 42.7 35.4234C42.7 35.418 42.7 35.4126 42.7 35.4073C42.7 35.4019 42.7 35.3965 42.7 35.3911C42.7 35.3857 42.7 35.3803 42.7 35.3748C42.7 35.3694 42.7 35.364 42.7 35.3586C42.7 35.3532 42.7 35.3477 42.7 35.3423C42.7 35.3369 42.7 35.3314 42.7 35.326C42.7 35.3205 42.7 35.3151 42.7 35.3096C42.7 35.3042 42.7 35.2987 42.7 35.2932C42.7 35.2878 42.7 35.2823 42.7 35.2768C42.7 35.2713 42.7 35.2659 42.7 35.2604C42.7 35.2549 42.7 35.2494 42.7 35.2439C42.7 35.2384 42.7 35.2329 42.7 35.2274C42.7 35.2218 42.7 35.2163 42.7 35.2108C42.7 35.2053 42.7 35.1998 42.7 35.1942C42.7 35.1887 42.7 35.1832 42.7 35.1776C42.7 35.1721 42.7 35.1665 42.7 35.161C42.7 35.1554 42.7 35.1498 42.7 35.1443C42.7 35.1387 42.7 35.1331 42.7 35.1276C42.7 35.122 42.7 35.1164 42.7 35.1108C42.7 35.1052 42.7 35.0996 42.7 35.094C42.7 35.0884 42.7 35.0828 42.7 35.0772C42.7 35.0716 42.7 35.066 42.7 35.0604C42.7 35.0548 42.7 35.0492 42.7 35.0435C42.7 35.0379 42.7 35.0323 42.7 35.0266C42.7 35.021 42.7 35.0153 42.7 35.0097C42.7 35.004 42.7 34.9984 42.7 34.9927C42.7 34.987 42.7 34.9814 42.7 34.9757C42.7 34.97 42.7 34.9644 42.7 34.9587C42.7 34.953 42.7 34.9473 42.7 34.9416C42.7 34.9359 42.7 34.9302 42.7 34.9245C42.7 34.9188 42.7 34.9131 42.7 34.9074C42.7 34.9017 42.7 34.896 42.7 34.8902C42.7 34.8845 42.7 34.8788 42.7 34.873C42.7 34.8673 42.7 34.8616 42.7 34.8558C42.7 34.8501 42.7 34.8443 42.7 34.8386C42.7 34.8328 42.7 34.827 42.7 34.8213C42.7 34.8155 42.7 34.8097 42.7 34.804C42.7 34.7982 42.7 34.7924 42.7 34.7866C42.7 34.7808 42.7 34.775 42.7 34.7692C42.7 34.7634 42.7 34.7576 42.7 34.7518C42.7 34.746 42.7 34.7402 42.7 34.7344C42.7 34.7286 42.7 34.7227 42.7 34.7169C42.7 34.7111 42.7 34.7052 42.7 34.6994C42.7 34.6936 42.7 34.6877 42.7 34.6819C42.7 34.676 42.7 34.6702 42.7 34.6643C42.7 34.6585 42.7 34.6526 42.7 34.6467C42.7 34.6408 42.7 34.635 42.7 34.6291C42.7 34.6232 42.7 34.6173 42.7 34.6114C42.7 34.6055 42.7 34.5996 42.7 34.5937C42.7 34.5878 42.7 34.5819 42.7 34.576C42.7 34.5701 42.7 34.5642 42.7 34.5583C42.7 34.5524 42.7 34.5464 42.7 34.5405C42.7 34.5346 42.7 34.5286 42.7 34.5227C42.7 34.5168 42.7 34.5108 42.7 34.5049C42.7 34.4989 42.7 34.4929 42.7 34.487C42.7 34.481 42.7 34.4751 42.7 34.4691C42.7 34.4631 42.7 34.4571 42.7 34.4512C42.7 34.4452 42.7 34.4392 42.7 34.4332C42.7 34.4272 42.7 34.4212 42.7 34.4152C42.7 34.4092 42.7 34.4032 42.7 34.3972C42.7 34.3912 42.7 34.3852 42.7 34.3791C42.7 34.3731 42.7 34.3671 42.7 34.3611C42.7 34.355 42.7 34.349 42.7 34.3429C42.7 34.3369 42.7 34.3309 42.7 34.3248C42.7 34.3188 42.7 34.3127 42.7 34.3066C42.7 34.3006 42.7 34.2945 42.7 34.2884C42.7 34.2824 42.7 34.2763 42.7 34.2702C42.7 34.2641 42.7 34.258 42.7 34.2519C42.7 34.2459 42.7 34.2398 42.7 34.2337C42.7 34.2276 42.7 34.2215 42.7 34.2153C42.7 34.2092 42.7 34.2031 42.7 34.197C42.7 34.1909 42.7 34.1847 42.7 34.1786C42.7 34.1725 42.7 34.1664 42.7 34.1602C42.7 34.1541 42.7 34.1479 42.7 34.1418C42.7 34.1356 42.7 34.1295 42.7 34.1233C42.7 34.1172 42.7 34.111 42.7 34.1048C42.7 34.0986 42.7 34.0925 42.7 34.0863C42.7 34.0801 42.7 34.0739 42.7 34.0677C42.7 34.0616 42.7 34.0554 42.7 34.0492C42.7 34.043 42.7 34.0368 42.7 34.0306C42.7 34.0243 42.7 34.0181 42.7 34.0119C42.7 34.0057 42.7 33.9995 42.7 33.9932C42.7 33.987 42.7 33.9808 42.7 33.9746C42.7 33.9683 42.7 33.9621 42.7 33.9558C42.7 33.9496 42.7 33.9433 42.7 33.9371C42.7 33.9308 42.7 33.9246 42.7 33.9183C42.7 33.912 42.7 33.9058 42.7 33.8995C42.7 33.8932 42.7 33.8869 42.7 33.8806C42.7 33.8744 42.7 33.8681 42.7 33.8618C42.7 33.8555 42.7 33.8492 42.7 33.8429C42.7 33.8366 42.7 33.8303 42.7 33.824C42.7 33.8176 42.7 33.8113 42.7 33.805C42.7 33.7987 42.7 33.7923 42.7 33.786C42.7 33.7797 42.7 33.7733 42.7 33.767C42.7 33.7607 42.7 33.7543 42.7 33.748C42.7 33.7416 42.7 33.7353 42.7 33.7289C42.7 33.7225 42.7 33.7162 42.7 33.7098C42.7 33.7034 42.7 33.6971 42.7 33.6907C42.7 33.6843 42.7 33.6779 42.7 33.6715C42.7 33.6652 42.7 33.6588 42.7 33.6524C42.7 33.646 42.7 33.6396 42.7 33.6332C42.7 33.6268 42.7 33.6203 42.7 33.6139C42.7 33.6075 42.7 33.6011 42.7 33.5947C42.7 33.5882 42.7 33.5818 42.7 33.5754C42.7 33.5689 42.7 33.5625 42.7 33.5561C42.7 33.5496 42.7 33.5432 42.7 33.5367C42.7 33.5303 42.7 33.5238 42.7 33.5173C42.7 33.5109 42.7 33.5044 42.7 33.4979C42.7 33.4915 42.7 33.485 42.7 33.4785C42.7 33.472 42.7 33.4656 42.7 33.4591C42.7 33.4526 42.7 33.4461 42.7 33.4396C42.7 33.4331 42.7 33.4266 42.7 33.4201C42.7 33.4136 42.7 33.4071 42.7 33.4005C42.7 33.394 42.7 33.3875 42.7 33.381C42.7 33.3745 42.7 33.3679 42.7 33.3614C42.7 33.3549 42.7 33.3483 42.7 33.3418C42.7 33.3352 42.7 33.3287 42.7 33.3221C42.7 33.3156 42.7 33.309 42.7 33.3025C42.7 33.2959 42.7 33.2893 42.7 33.2828C42.7 33.2762 42.7 33.2696 42.7 33.2631C42.7 33.2565 42.7 33.2499 42.7 33.2433C42.7 33.2367 42.7 33.2301 42.7 33.2235C42.7 33.2169 42.7 33.2103 42.7 33.2037C42.7 33.1971 42.7 33.1905 42.7 33.1839C42.7 33.1773 42.7 33.1707 42.7 33.164C42.7 33.1574 42.7 33.1508 42.7 33.1442C42.7 33.1375 42.7 33.1309 42.7 33.1242C42.7 33.1176 42.7 33.111 42.7 33.1043C42.7 33.0977 42.7 33.091 42.7 33.0843C42.7 33.0777 42.7 33.071 42.7 33.0644C42.7 33.0577 42.7 33.051 42.7 33.0443C42.7 33.0377 42.7 33.031 42.7 33.0243C42.7 33.0176 42.7 33.0109 42.7 33.0042C42.7 32.9975 42.7 32.9908 42.7 32.9841C42.7 32.9774 42.7 32.9707 42.7 32.964C42.7 32.9573 42.7 32.9506 42.7 32.9439C42.7 32.9372 42.7 32.9304 42.7 32.9237C42.7 32.917 42.7 32.9102 42.7 32.9035C42.7 32.8968 42.7 32.89 42.7 32.8833C42.7 32.8765 42.7 32.8698 42.7 32.863C42.7 32.8563 42.7 32.8495 42.7 32.8428C42.7 32.836 42.7 32.8292 42.7 32.8225C42.7 32.8157 42.7 32.8089 42.7 32.8021C42.7 32.7954 42.7 32.7886 42.7 32.7818C42.7 32.775 42.7 32.7682 42.7 32.7614C42.7 32.7546 42.7 32.7478 42.7 32.741C42.7 32.7342 42.7 32.7274 42.7 32.7206C42.7 32.7138 42.7 32.707 42.7 32.7001C42.7 32.6933 42.7 32.6865 42.7 32.6797C42.7 32.6728 42.7 32.666 42.7 32.6592C42.7 32.6523 42.7 32.6455 42.7 32.6386C42.7 32.6318 42.7 32.6249 42.7 32.6181C42.7 32.6112 42.7 32.6044 42.7 32.5975C42.7 32.5906 42.7 32.5838 42.7 32.5769C42.7 32.57 42.7 32.5632 42.7 32.5563C42.7 32.5494 42.7 32.5425 42.7 32.5356C42.7 32.5287 42.7 32.5218 42.7 32.5149C42.7 32.5081 42.7 32.5012 42.7 32.4942C42.7 32.4873 42.7 32.4804 42.7 32.4735C42.7 32.4666 42.7 32.4597 42.7 32.4528C42.7 32.4459 42.7 32.4389 42.7 32.432C42.7 32.4251 42.7 32.4181 42.7 32.4112C42.7 32.4043 42.7 32.3973 42.7 32.3904C42.7 32.3834 42.7 32.3765 42.7 32.3695C42.7 32.3626 42.7 32.3556 42.7 32.3487C42.7 32.3417 42.7 32.3347 42.7 32.3278C42.7 32.3208 42.7 32.3138 42.7 32.3068C42.7 32.2999 42.7 32.2929 42.7 32.2859C42.7 32.2789 42.7 32.2719 42.7 32.2649C42.7 32.2579 42.7 32.2509 42.7 32.2439C42.7 32.2369 42.7 32.2299 42.7 32.2229C42.7 32.2159 42.7 32.2089 42.7 32.2019C42.7 32.1948 42.7 32.1878 42.7 32.1808C42.7 32.1738 42.7 32.1667 42.7 32.1597C42.7 32.1527 42.7 32.1456 42.7 32.1386C42.7 32.1316 42.7 32.1245 42.7 32.1175C42.7 32.1104 42.7 32.1034 42.7 32.0963C42.7 32.0892 42.7 32.0822 42.7 32.0751C42.7 32.068 42.7 32.061 42.7 32.0539C42.7 32.0468 42.7 32.0398 42.7 32.0327C42.7 32.0256 42.7 32.0185 42.7 32.0114C42.7 32.0043 42.7 31.9972 42.7 31.9901C42.7 31.983 42.7 31.9759 42.7 31.9688C42.7 31.9617 42.7 31.9546 42.7 31.9475C42.7 31.9404 42.7 31.9333 42.7 31.9262C42.7 31.919 42.7 31.9119 42.7 31.9048C42.7 31.8977 42.7 31.8905 42.7 31.8834C42.7 31.8763 42.7 31.8691 42.7 31.862C42.7 31.8548 42.7 31.8477 42.7 31.8405C42.7 31.8334 42.7 31.8262 42.7 31.8191C42.7 31.8119 42.7 31.8047 42.7 31.7976C42.7 31.7904 42.7 31.7832 42.7 31.7761C42.7 31.7689 42.7 31.7617 42.7 31.7545C42.7 31.7474 42.7 31.7402 42.7 31.733C42.7 31.7258 42.7 31.7186 42.7 31.7114C42.7 31.7042 42.7 31.697 42.7 31.6898C42.7 31.6826 42.7 31.6754 42.7 31.6682C42.7 31.661 42.7 31.6537 42.7 31.6465C42.7 31.6393 42.7 31.6321 42.7 31.6249C42.7 31.6176 42.7 31.6104 42.7 31.6032C42.7 31.5959 42.7 31.5887 42.7 31.5815C42.7 31.5742 42.7 31.567 42.7 31.5597C42.7 31.5525 42.7 31.5452 42.7 31.538C42.7 31.5307 42.7 31.5234 42.7 31.5162C42.7 31.5089 42.7 31.5016 42.7 31.4944C42.7 31.4871 42.7 31.4798 42.7 31.4725C42.7 31.4653 42.7 31.458 42.7 31.4507C42.7 31.4434 42.7 31.4361 42.7 31.4288C42.7 31.4215 42.7 31.4142 42.7 31.4069C42.7 31.3996 42.7 31.3923 42.7 31.385C42.7 31.3777 42.7 31.3704 42.7 31.3631C42.7 31.3558 42.7 31.3485 42.7 31.3411C42.7 31.3338 42.7 31.3265 42.7 31.3192C42.7 31.3118 42.7 31.3045 42.7 31.2972C42.7 31.2898 42.7 31.2825 42.7 31.2751C42.7 31.2678 42.7 31.2604 42.7 31.2531C42.7 31.2457 42.7 31.2384 42.7 31.231C42.7 31.2237 42.7 31.2163 42.7 31.2089C42.7 31.2016 42.7 31.1942 42.7 31.1868C42.7 31.1795 42.7 31.1721 42.7 31.1647C42.7 31.1573 42.7 31.1499 42.7 31.1425C42.7 31.1352 42.7 31.1278 42.7 31.1204C42.7 31.113 42.7 31.1056 42.7 31.0982C42.7 31.0908 42.7 31.0834 42.7 31.076C42.7 31.0686 42.7 31.0611 42.7 31.0537C42.7 31.0463 42.7 31.0389 42.7 31.0315C42.7 31.0241 42.7 31.0166 42.7 31.0092C42.7 31.0018 42.7 30.9943 42.7 30.9869C42.7 30.9795 42.7 30.972 42.7 30.9646C42.7 30.9571 42.7 30.9497 42.7 30.9422C42.7 30.9348 42.7 30.9273 42.7 30.9199C42.7 30.9124 42.7 30.905 42.7 30.8975C42.7 30.89 42.7 30.8826 42.7 30.8751C42.7 30.8676 42.7 30.8601 42.7 30.8527C42.7 30.8452 42.7 30.8377 42.7 30.8302C42.7 30.8227 42.7 30.8152 42.7 30.8078C42.7 30.8003 42.7 30.7928 42.7 30.7853C42.7 30.7778 42.7 30.7703 42.7 30.7628C42.7 30.7553 42.7 30.7478 42.7 30.7402C42.7 30.7327 42.7 30.7252 42.7 30.7177C42.7 30.7102 42.7 30.7027 42.7 30.6951C42.7 30.6876 42.7 30.6801 42.7 30.6725C42.7 30.665 42.7 30.6575 42.7 30.6499C42.7 30.6424 42.7 30.6349 42.7 30.6273C42.7 30.6198 42.7 30.6122 42.7 30.6047C42.7 30.5971 42.7 30.5896 42.7 30.582C42.7 30.5744 42.7 30.5669 42.7 30.5593C42.7 30.5517 42.7 30.5442 42.7 30.5366C42.7 30.529 42.7 30.5215 42.7 30.5139C42.7 30.5063 42.7 30.4987 42.7 30.4911C42.7 30.4835 42.7 30.476 42.7 30.4684C42.7 30.4608 42.7 30.4532 42.7 30.4456C42.7 30.438 42.7 30.4304 42.7 30.4228C42.7 30.4152 42.7 30.4076 42.7 30.3999C42.7 30.3923 42.7 30.3847 42.7 30.3771C42.7 30.3695 42.7 30.3619 42.7 30.3542C42.7 30.3466 42.7 30.339 42.7 30.3314C42.7 30.3237 42.7 30.3161 42.7 30.3084C42.7 30.3008 42.7 30.2932 42.7 30.2855C42.7 30.2779 42.7 30.2702 42.7 30.2626C42.7 30.2549 42.7 30.2473 42.7 30.2396C42.7 30.232 42.7 30.2243 42.7 30.2166C42.7 30.209 42.7 30.2013 42.7 30.1936C42.7 30.186 42.7 30.1783 42.7 30.1706C42.7 30.163 42.7 30.1553 42.7 30.1476C42.7 30.1399 42.7 30.1322 42.7 30.1245C42.7 30.1168 42.7 30.1092 42.7 30.1015C42.7 30.0938 42.7 30.0861 42.7 30.0784C42.7 30.0707 42.7 30.063 42.7 30.0553C42.7 30.0475 42.7 30.0398 42.7 30.0321C42.7 30.0244 42.7 30.0167 42.7 30.009C42.7 30.0013 42.7 29.9935 42.7 29.9858C42.7 29.9781 42.7 29.9704 42.7 29.9626C42.7 29.9549 42.7 29.9472 42.7 29.9394C42.7 29.9317 42.7 29.9239 42.7 29.9162C42.7 29.9085 42.7 29.9007 42.7 29.893C42.7 29.8852 42.7 29.8774 42.7 29.8697C42.7 29.8619 42.7 29.8542 42.7 29.8464C42.7 29.8387 42.7 29.8309 42.7 29.8231C42.7 29.8153 42.7 29.8076 42.7 29.7998C42.7 29.792 42.7 29.7843 42.7 29.7765C42.7 29.7687 42.7 29.7609 42.7 29.7531C42.7 29.7453 42.7 29.7375 42.7 29.7298C42.7 29.722 42.7 29.7142 42.7 29.7064C42.7 29.6986 42.7 29.6908 42.7 29.683C42.7 29.6752 42.7 29.6673 42.7 29.6595C42.7 29.6517 42.7 29.6439 42.7 29.6361C42.7 29.6283 42.7 29.6205 42.7 29.6126C42.7 29.6048 42.7 29.597 42.7 29.5892C42.7 29.5813 42.7 29.5735 42.7 29.5657C42.7 29.5578 42.7 29.55 42.7 29.5422C42.7 29.5343 42.7 29.5265 42.7 29.5186C42.7 29.5108 42.7 29.5029 42.7 29.4951C42.7 29.4872 42.7 29.4794 42.7 29.4715C42.7 29.4637 42.7 29.4558 42.7 29.4479C42.7 29.4401 42.7 29.4322 42.7 29.4243C42.7 29.4165 42.7 29.4086 42.7 29.4007C42.7 29.3929 42.7 29.385 42.7 29.3771C42.7 29.3692 42.7 29.3613 42.7 29.3534C42.7 29.3456 42.7 29.3377 42.7 29.3298C42.7 29.3219 42.7 29.314 42.7 29.3061C42.7 29.2982 42.7 29.2903 42.7 29.2824C42.7 29.2745 42.7 29.2666 42.7 29.2587C42.7 29.2508 42.7 29.2429 42.7 29.2349C42.7 29.227 42.7 29.2191 42.7 29.2112C42.7 29.2033 42.7 29.1954 42.7 29.1874C42.7 29.1795 42.7 29.1716 42.7 29.1636C42.7 29.1557 42.7 29.1478 42.7 29.1398C42.7 29.1319 42.7 29.124 42.7 29.116C42.7 29.1081 42.7 29.1001 42.7 29.0922C42.7 29.0842 42.7 29.0763 42.7 29.0683C42.7 29.0604 42.7 29.0524 42.7 29.0445C42.7 29.0365 42.7 29.0286 42.7 29.0206C42.7 29.0126 42.7 29.0047 42.7 28.9967C42.7 28.9887 42.7 28.9807 42.7 28.9728C42.7 28.9648 42.7 28.9568 42.7 28.9488C42.7 28.9409 42.7 28.9329 42.7 28.9249C42.7 28.9169 42.7 28.9089 42.7 28.9009C42.7 28.8929 42.7 28.8849 42.7 28.8769C42.7 28.8689 42.7 28.8609 42.7 28.8529C42.7 28.8449 42.7 28.8369 42.7 28.8289C42.7 28.8209 42.7 28.8129 42.7 28.8049C42.7 28.7969 42.7 28.7889 42.7 28.7809C42.7 28.7728 42.7 28.7648 42.7 28.7568C42.7 28.7488 42.7 28.7408 42.7 28.7327C42.7 28.7247 42.7 28.7167 42.7 28.7086C42.7 28.7006 42.7 28.6926 42.7 28.6845C42.7 28.6765 42.7 28.6684 42.7 28.6604C42.7 28.6524 42.7 28.6443 42.7 28.6363C42.7 28.6282 42.7 28.6202 42.7 28.6121C42.7 28.6041 42.7 28.596 42.7 28.5879C42.7 28.5799 42.7 28.5718 42.7 28.5638C42.7 28.5557 42.7 28.5476 42.7 28.5396C42.7 28.5315 42.7 28.5234 42.7 28.5153C42.7 28.5073 42.7 28.4992 42.7 28.4911C42.7 28.483 42.7 28.475 42.7 28.4669C42.7 28.4588 42.7 28.4507 42.7 28.4426C42.7 28.4345 42.7 28.4264 42.7 28.4183C42.7 28.4102 42.7 28.4021 42.7 28.394C42.7 28.3859 42.7 28.3778 42.7 28.3697C42.7 28.3616 42.7 28.3535 42.7 28.3454C42.7 28.3373 42.7 28.3292 42.7 28.3211C42.7 28.313 42.7 28.3049 42.7 28.2967C42.7 28.2886 42.7 28.2805 42.7 28.2724C42.7 28.2642 42.7 28.2561 42.7 28.248C42.7 28.2399 42.7 28.2317 42.7 28.2236C42.7 28.2155 42.7 28.2073 42.7 28.1992C42.7 28.191 42.7 28.1829 42.7 28.1748C42.7 28.1666 42.7 28.1585 42.7 28.1503C42.7 28.1422 42.7 28.134 42.7 28.1259C42.7 28.1177 42.7 28.1096 42.7 28.1014C42.7 28.0933 42.7 28.0851 42.7 28.0769C42.7 28.0688 42.7 28.0606 42.7 28.0524C42.7 28.0443 42.7 28.0361 42.7 28.0279C42.7 28.0198 42.7 28.0116 42.7 28.0034C42.7 27.9952 42.7 27.987 42.7 27.9789C42.7 27.9707 42.7 27.9625 42.7 27.9543C42.7 27.9461 42.7 27.9379 42.7 27.9298C42.7 27.9216 42.7 27.9134 42.7 27.9052C42.7 27.897 42.7 27.8888 42.7 27.8806C42.7 27.8724 42.7 27.8642 42.7 27.856C42.7 27.8478 42.7 27.8396 42.7 27.8314C42.7 27.8231 42.7 27.8149 42.7 27.8067C42.7 27.7985 42.7 27.7903 42.7 27.7821C42.7 27.7739 42.7 27.7656 42.7 27.7574C42.7 27.7492 42.7 27.741 42.7 27.7327C42.7 27.7245 42.7 27.7163 42.7 27.7081C42.7 27.6998 42.7 27.6916 42.7 27.6833C42.7 27.6751 42.7 27.6669 42.7 27.6586C42.7 27.6504 42.7 27.6422 42.7 27.6339C42.7 27.6257 42.7 27.6174 42.7 27.6092C42.7 27.6009 42.7 27.5927 42.7 27.5844C42.7 27.5762 42.7 27.5679 42.7 27.5596C42.7 27.5514 42.7 27.5431 42.7 27.5349C42.7 27.5266 42.7 27.5183 42.7 27.5101C42.7 27.5018 42.7 27.4935 42.7 27.4853C42.7 27.477 42.7 27.4687 42.7 27.4604C42.7 27.4522 42.7 27.4439 42.7 27.4356C42.7 27.4273 42.7 27.4191 42.7 27.4108C42.7 27.4025 42.7 27.3942 42.7 27.3859C42.7 27.3776 42.7 27.3693 42.7 27.361C42.7 27.3527 42.7 27.3445 42.7 27.3362C42.7 27.3279 42.7 27.3196 42.7 27.3113C42.7 27.303 42.7 27.2947 42.7 27.2864C42.7 27.278 42.7 27.2697 42.7 27.2614C42.7 27.2531 42.7 27.2448 42.7 27.2365C42.7 27.2282 42.7 27.2199 42.7 27.2116C42.7 27.2032 42.7 27.1949 42.7 27.1866C42.7 27.1783 42.7 27.1699 42.7 27.1616C42.7 27.1533 42.7 27.145 42.7 27.1366C42.7 27.1283 42.7 27.12 42.7 27.1116C42.7 27.1033 42.7 27.095 42.7 27.0866C42.7 27.0783 42.7 27.07 42.7 27.0616C42.7 27.0533 42.7 27.0449 42.7 27.0366C42.7 27.0282 42.7 27.0199 42.7 27.0115C42.7 27.0032 42.7 26.9948 42.7 26.9865C42.7 26.9781 42.7 26.9698 42.7 26.9614C42.7 26.9531 42.7 26.9447 42.7 26.9363C42.7 26.928 42.7 26.9196 42.7 26.9113C42.7 26.9029 42.7 26.8945 42.7 26.8862C42.7 26.8778 42.7 26.8694 42.7 26.861C42.7 26.8527 42.7 26.8443 42.7 26.8359C42.7 26.8275 42.7 26.8192 42.7 26.8108C42.7 26.8024 42.7 26.794 42.7 26.7856C42.7 26.7772 42.7 26.7689 42.7 26.7605C42.7 26.7521 42.7 26.7437 42.7 26.7353C42.7 26.7269 42.7 26.7185 42.7 26.7101C42.7 26.7017 42.7 26.6933 42.7 26.6849C42.7 26.6765 42.7 26.6681 42.7 26.6597C42.7 26.6513 42.7 26.6429 42.7 26.6345C42.7 26.6261 42.7 26.6177 42.7 26.6093C42.7 26.6009 42.7 26.5925 42.7 26.584C42.7 26.5756 42.7 26.5672 42.7 26.5588C42.7 26.5504 42.7 26.542 42.7 26.5335C42.7 26.5251 42.7 26.5167 42.7 26.5083C42.7 26.4998 42.7 26.4914 42.7 26.483C42.7 26.4746 42.7 26.4661 42.7 26.4577C42.7 26.4493 42.7 26.4408 42.7 26.4324C42.7 26.424 42.7 26.4155 42.7 26.4071C42.7 26.3986 42.7 26.3902 42.7 26.3818C42.7 26.3733 42.7 26.3649 42.7 26.3564C42.7 26.348 42.7 26.3395 42.7 26.3311C42.7 26.3226 42.7 26.3142 42.7 26.3057C42.7 26.2973 42.7 26.2888 42.7 26.2803C42.7 26.2719 42.7 26.2634 42.7 26.255C42.7 26.2465 42.7 26.2381 42.7 26.2296C42.7 26.2211 42.7 26.2127 42.7 26.2042C42.7 26.1957 42.7 26.1873 42.7 26.1788C42.7 26.1703 42.7 26.1618 42.7 26.1534C42.7 26.1449 42.7 26.1364 42.7 26.1279C42.7 26.1195 42.7 26.111 42.7 26.1025C42.7 26.094 42.7 26.0855 42.7 26.0771C42.7 26.0686 42.7 26.0601 42.7 26.0516C42.7 26.0431 42.7 26.0346 42.7 26.0261C42.7 26.0176 42.7 26.0091 42.7 26.0007C42.7 25.9922 42.7 25.9837 42.7 25.9752C42.7 25.9667 42.7 25.9582 42.7 25.9497C42.7 25.9412 42.7 25.9327 42.7 25.9242C42.7 25.9157 42.7 25.9072 42.7 25.8987C42.7 25.8901 42.7 25.8816 42.7 25.8731C42.7 25.8646 42.7 25.8561 42.7 25.8476C42.7 25.8391 42.7 25.8306 42.7 25.822C42.7 25.8135 42.7 25.805 42.7 25.7965C42.7 25.788 42.7 25.7795 42.7 25.7709C42.7 25.7624 42.7 25.7539 42.7 25.7454C42.7 25.7368 42.7 25.7283 42.7 25.7198C42.7 25.7113 42.7 25.7027 42.7 25.6942C42.7 25.6857 42.7 25.6771 42.7 25.6686C42.7 25.6601 42.7 25.6515 42.7 25.643C42.7 25.6344 42.7 25.6259 42.7 25.6174C42.7 25.6088 42.7 25.6003 42.7 25.5917C42.7 25.5832 42.7 25.5747 42.7 25.5661C42.7 25.5576 42.7 25.549 42.7 25.5405C42.7 25.5319 42.7 25.5234 42.7 25.5148C42.7 25.5063 42.7 25.4977 42.7 25.4891C42.7 25.4806 42.7 25.472 42.7 25.4635C42.7 25.4549 42.7 25.4464 42.7 25.4378C42.7 25.4292 42.7 25.4207 42.7 25.4121C42.7 25.4035 42.7 25.395 42.7 25.3864C42.7 25.3779 42.7 25.3693 42.7 25.3607C42.7 25.3521 42.7 25.3436 42.7 25.335C42.7 25.3264 42.7 25.3179 42.7 25.3093C42.7 25.3007 42.7 25.2921 42.7 25.2836C42.7 25.275 42.7 25.2664 42.7 25.2578C42.7 25.2492 42.7 25.2407 42.7 25.2321C42.7 25.2235 42.7 25.2149 42.7 25.2063C42.7 25.1977 42.7 25.1891 42.7 25.1806C42.7 25.172 42.7 25.1634 42.7 25.1548C42.7 25.1462 42.7 25.1376 42.7 25.129C42.7 25.1204 42.7 25.1118 42.7 25.1032C42.7 25.0946 42.7 25.086 42.7 25.0774C42.7 25.0688 42.7 25.0602 42.7 25.0516C42.7 25.043 42.7 25.0344 42.7 25.0258C42.7 25.0172 42.7 25.0086 42.7 25H41.3ZM6.7 36.0123C6.7 33.4797 6.7 29.4067 6.7 25H5.3C5.3 29.4067 5.3 33.4797 5.3 36.0123L6.7 36.0123ZM39.2887 38.2671C35.6029 38.66 28.85 39.3 24 39.3V40.7C28.9329 40.7 35.753 40.052 39.4371 39.6592L39.2887 38.2671ZM24 39.3C19.15 39.3 12.3971 38.66 8.71131 38.2671L8.56289 39.6592C12.247 40.052 19.0671 40.7 24 40.7V39.3ZM5.3 36.0123C5.3 37.8816 6.69362 39.4599 8.56289 39.6592L8.71131 38.2671C7.56415 38.1448 6.7 37.1764 6.7 36.0123L5.3 36.0123ZM41.3 36.0123C41.3 37.1764 40.4358 38.1448 39.2887 38.2671L39.4371 39.6592C41.3064 39.4599 42.7 37.8816 42.7 36.0123H41.3Z" fill="black"/>
</svg>
