<svg width="70" height="70" viewBox="0 0 70 70" fill="none" xmlns="http://www.w3.org/2000/svg">
<path d="M21 26C21 22.2503 21 20.3754 21.9549 19.0611C22.2633 18.6366 22.6366 18.2633 23.0611 17.9549C24.3754 17 26.2503 17 30 17H40C43.7497 17 45.6246 17 46.9389 17.9549C47.3634 18.2633 47.7367 18.6366 48.0451 19.0611C49 20.3754 49 22.2503 49 26V48.299C49 52.142 49 54.0635 48.1399 54.5901C47.8771 54.751 47.5774 54.8418 47.2695 54.8537C46.2617 54.8926 45.1959 53.2938 43.0642 50.0962L36.4977 40.2465C35.9006 39.3509 35.602 38.903 35.1953 38.822C35.0664 38.7964 34.9336 38.7964 34.8047 38.822C34.398 38.903 34.0994 39.3509 33.5023 40.2465L26.9358 50.0962C24.8041 53.2938 23.7383 54.8926 22.7305 54.8537C22.4226 54.8418 22.1229 54.751 21.8601 54.5901C21 54.0635 21 52.142 21 48.299V26Z" stroke="#F7971D" stroke-width="3" stroke-linejoin="round"/>
<circle cx="35" cy="35" r="33.5" stroke="#F7971D" stroke-width="3"/>
</svg>
