<svg width="48" height="48" viewBox="0 0 48 48" fill="none" xmlns="http://www.w3.org/2000/svg">
<path d="M5 24.846C5 22.4656 5 21.2753 5.50049 20.2425C6.00099 19.2097 6.93518 18.4722 8.80356 16.9972L17.8036 9.89192C20.7773 7.54423 22.2642 6.37038 24 6.37038C25.7358 6.37038 27.2227 7.54423 30.1964 9.89193L39.1964 16.9972C41.0648 18.4722 41.999 19.2097 42.4995 20.2425C43 21.2753 43 22.4656 43 24.846V38C43 40.8284 43 42.2426 42.1213 43.1213C41.2426 44 39.8284 44 37 44H24H11C8.17157 44 6.75736 44 5.87868 43.1213C5 42.2426 5 40.8284 5 38V24.846Z" stroke="black" stroke-width="3"/>
<path d="M30 44C30 43.2121 29.8448 42.4319 29.5433 41.7039C29.2417 40.9759 28.7998 40.3145 28.2426 39.7574C27.6855 39.2002 27.0241 38.7583 26.2961 38.4567C25.5681 38.1552 24.7879 38 24 38C23.2121 38 22.4319 38.1552 21.7039 38.4567C20.9759 38.7583 20.3145 39.2002 19.7574 39.7574C19.2002 40.3145 18.7583 40.9759 18.4567 41.7039C18.1552 42.4319 18 43.2121 18 44L24 44H30Z" stroke="black" stroke-width="3"/>
</svg>
