<svg width="48" height="48" viewBox="0 0 48 48" fill="none" xmlns="http://www.w3.org/2000/svg">
<path d="M8.87618 34.0106C9.1851 31.1937 9.33955 29.7853 10.2746 29.0102C11.2097 28.235 12.6575 28.347 15.553 28.571C18.0588 28.7648 20.9818 28.9333 23.5708 28.9333C26.2607 28.9333 29.2688 28.7514 31.7898 28.5482C34.5036 28.3295 35.8605 28.2201 36.7757 28.9201C37.6909 29.6202 37.9341 30.9239 38.4205 33.5314L38.6757 34.8999C39.2892 38.1893 39.596 39.834 38.6963 40.917C37.7967 42 36.1236 42 32.7774 42L23.5708 42H14.694C11.5695 42 10.0072 42 9.11303 41.0024C8.21882 40.0047 8.38912 38.4518 8.72974 35.3459L8.87618 34.0106Z" stroke="black" stroke-width="3"/>
<path d="M16 10C16 7.79086 17.7909 6 20 6H28C30.2091 6 32 7.79086 32 10V18C32 20.2091 30.2091 22 28 22H25.1429H22.8571H20C17.7909 22 16 20.2091 16 18V10Z" stroke="black" stroke-width="3"/>
</svg>
