<svg width="100" height="100" viewBox="0 0 100 100" fill="none" xmlns="http://www.w3.org/2000/svg">
<path d="M78.5 74.5C78.5 78.5775 75.6558 82.5463 70.4574 85.5787C65.2959 88.5896 58.0664 90.5 50 90.5C41.9336 90.5 34.7041 88.5896 29.5426 85.5787C24.3442 82.5463 21.5 78.5775 21.5 74.5C21.5 70.4225 24.3442 66.4537 29.5426 63.4213C34.7041 60.4104 41.9336 58.5 50 58.5C58.0664 58.5 65.2959 60.4104 70.4574 63.4213C75.6558 66.4537 78.5 70.4225 78.5 74.5Z" stroke="#F7971D" stroke-width="3"/>
<rect x="7" y="71" width="82" height="23" fill="#212121"/>
<circle cx="50" cy="50" r="48.5" stroke="#F7971D" stroke-width="3"/>
<circle cx="68" cy="32" r="5" fill="#F7971D"/>
<circle cx="32" cy="32" r="5" fill="#F7971D"/>
</svg>
