<svg width="47" height="32" viewBox="0 0 47 32" fill="none" xmlns="http://www.w3.org/2000/svg">
<rect x="1" y="1" width="45" height="30" rx="4" stroke="black" stroke-width="2"/>
<path d="M14.226 20.606V18.572C14.226 18.176 14.07 17.888 13.758 17.708C13.446 17.528 12.906 17.348 12.138 17.168L10.536 16.808C9.804 16.64 9.252 16.454 8.88 16.25C8.088 15.83 7.692 14.96 7.692 13.64V12.254C7.692 11.258 8.046 10.538 8.754 10.094C9.474 9.638 10.422 9.41 11.598 9.41C12.774 9.41 13.716 9.638 14.424 10.094C15.132 10.538 15.486 11.258 15.486 12.254V13.046C15.486 13.322 15.246 13.46 14.766 13.46C14.286 13.46 14.046 13.322 14.046 13.046V12.074C14.046 11.138 13.224 10.67 11.58 10.67C9.948 10.67 9.132 11.138 9.132 12.074V13.604C9.132 14.264 9.228 14.72 9.42 14.972C9.624 15.212 9.996 15.392 10.536 15.512L12.138 15.872C13.29 16.124 13.944 16.298 14.1 16.394C14.268 16.478 14.46 16.574 14.676 16.682C14.892 16.79 15.036 16.904 15.108 17.024C15.192 17.132 15.288 17.27 15.396 17.438C15.576 17.714 15.666 18.14 15.666 18.716V20.426C15.666 21.41 15.27 22.13 14.478 22.586C13.698 23.042 12.708 23.27 11.508 23.27C10.32 23.27 9.342 23.042 8.574 22.586C7.818 22.13 7.44 21.41 7.44 20.426V19.634C7.44 19.358 7.68 19.22 8.16 19.22C8.64 19.22 8.88 19.358 8.88 19.634V20.606C8.88 21.098 9.126 21.458 9.618 21.686C10.122 21.902 10.752 22.01 11.508 22.01C12.276 22.01 12.918 21.896 13.434 21.668C13.962 21.44 14.226 21.086 14.226 20.606ZM20.5294 20.606C20.5294 21.542 21.4354 22.01 23.2474 22.01C25.0714 22.01 25.9834 21.542 25.9834 20.606V10.004C25.9834 9.728 26.2234 9.59 26.7034 9.59C27.1834 9.59 27.4234 9.728 27.4234 10.004V20.426C27.4234 21.422 27.0334 22.148 26.2534 22.604C25.4854 23.048 24.4654 23.27 23.1934 23.27C20.4574 23.27 19.0894 22.322 19.0894 20.426V10.004C19.0894 9.728 19.3234 9.59 19.7914 9.59C20.2714 9.59 20.5114 9.728 20.5114 10.004L20.5294 20.606ZM35.2465 23.09H34.0405C33.0085 23.09 32.2765 22.844 31.8445 22.352C31.4125 21.848 31.1965 21.038 31.1965 19.922V12.254C31.1965 11.258 31.5565 10.538 32.2765 10.094C32.9965 9.638 33.9565 9.41 35.1565 9.41C36.3565 9.41 37.3105 9.638 38.0185 10.094C38.7265 10.538 39.0805 11.258 39.0805 12.254V13.928C39.0805 15.104 38.6125 15.836 37.6765 16.124C38.7325 16.376 39.2605 17.12 39.2605 18.356V20.246C39.2605 21.242 38.8945 21.968 38.1625 22.424C37.4305 22.868 36.4585 23.09 35.2465 23.09ZM35.8765 16.772H33.6265C33.3865 16.772 33.2665 16.562 33.2665 16.142C33.2665 15.722 33.3865 15.512 33.6265 15.512H35.6965C36.9925 15.512 37.6405 14.984 37.6405 13.928V12.074C37.6405 11.138 36.8065 10.67 35.1385 10.67C33.4705 10.67 32.6365 11.138 32.6365 12.074V19.922C32.6365 20.618 32.7385 21.11 32.9425 21.398C33.1585 21.686 33.5245 21.83 34.0405 21.83H35.2105C36.9505 21.83 37.8205 21.362 37.8205 20.426V18.356C37.8205 17.3 37.1725 16.772 35.8765 16.772Z" fill="black"/>
</svg>
